<svg id="Layer_1" data-name="Layer 1" xmlns="http://www.w3.org/2000/svg" viewBox="0 0 315.79 45.48"><defs><style>.cls-1{fill:#002d74;}</style></defs><path class="cls-1" d="M87.27,34c2.88.14,5.28-1.2,7.54-2.68.42-.28,1-.68.81-1.29s-.39-1.12-1-1.31a25.1,25.1,0,0,0-5.22.7c-.47,0-1,.3-1.42.05a22.87,22.87,0,0,1,1.17-3l4.36-.12c.53-.08,1.09-.05,1.48-.5a4.41,4.41,0,0,0-.06-1.7c-1.34-.7-3.27-.31-4.77-.37L90,23.72a21.91,21.91,0,0,1,.7-2.12c2.4-.06,4.5.08,6.65-.56a.68.68,0,0,0,.39-.64,3.75,3.75,0,0,0-2.4-2.46,31.76,31.76,0,0,0-6.84.56c-1.15.31-2.55.11-3.58.75-.08.22.2.34.17.53.28,1.34,1.73,1.18,2.65,1.57-.58,1-.47,3-2.09,2.87-.92.48-.2,1.62-.17,2.35-.67,1.62-1.7,3.66-.64,5.45a3.6,3.6,0,0,0,2.4,2" transform="translate(-1.7 -0.98)"/><path class="cls-1" d="M51.13,33.36c.44-.17,1.06-.28,1.2-.84.17-4.05-.23-8.18-.45-12.32A3.44,3.44,0,0,0,51,18.33c-.25-.17-.55-.42-.89-.25a1.66,1.66,0,0,0-.64.92,42,42,0,0,0-.36,13.52c.36.81,1.28.72,2,.84" transform="translate(-1.7 -0.98)"/><path class="cls-1" d="M72.3,33.08a1.48,1.48,0,0,0,.81-.92c.36-2,.28-4.28.44-6.23a4.86,4.86,0,0,1,.4-2.15c1.31,1.81,2,3.91,3.26,5.72.9,1,1.49,2.54,2.94,2.71a3.77,3.77,0,0,0,3-2.65A14.67,14.67,0,0,0,80.9,17.44c-.64-.73-1.28-1.85-2.32-1.93-.33.14-.36.47-.42.75.56,3.21,2,6.26,2.13,9.61a3.59,3.59,0,0,1-.14,2l-.17,0c-1.65-2.1-2.65-4.42-4.33-6.51-.73-.75-1.23-1.82-2.21-2.29-.56-.25-1,.25-1.31.64a22.58,22.58,0,0,0-1.79,6.68c0,2.18-.89,4.52.59,6.34a1.7,1.7,0,0,0,1.37.42" transform="translate(-1.7 -0.98)"/><path class="cls-1" d="M57.3,31.9c2.93,1.6,7.49,1.62,10.28-.3,1.84-1,1.84-3.3,1.59-5.06-.59-2.12-2.85-2.79-4.72-3.07-2.68-.22-5.42-.28-7.85-1.12a.17.17,0,0,1,.06-.25c3.13-1.12,6.9-.89,10.25-1.34a4.73,4.73,0,0,0,2.26-.61,1.86,1.86,0,0,0,.61-1.21c-.16-.27-.44-.27-.67-.41-4.66-1.26-10.61-1.12-14.46,1.81a3.57,3.57,0,0,0-.81,3.13,2.34,2.34,0,0,0,1.06,1.09c2.76.81,6.06.31,8.85,1a4.83,4.83,0,0,1,3.1,1.62.94.94,0,0,1-.44.95,15.61,15.61,0,0,1-5.93,1.62c-1.48-.08-3.43.42-4.52-.92a.87.87,0,0,1,.44-1.09c2.46-.84,4.22,1.73,6.74.9.72-.25,1.78-.34,2-1.26A9.32,9.32,0,0,0,60.82,26c-2-.16-4.22-.5-5.62,1.06a2.53,2.53,0,0,0-.44,2.46,5.78,5.78,0,0,0,2.54,2.4" transform="translate(-1.7 -0.98)"/><path class="cls-1" d="M19.65,36.54c-.64-.95-.59-2.21-.84-3.32a24.74,24.74,0,0,1-10.28-8.3,2.43,2.43,0,0,1,.25-2.26c1.93-2.1,4.58-2.79,7.15-3.58l3.16-.58c.31-2.66.31-5.56,1.37-8,.92-.2,1.34.89,1.81,1.45.81,1.82.51,4.22.84,6.09,4.36,0,8.88.17,12.29,2.76a3.65,3.65,0,0,1,1.26,2.82,4.2,4.2,0,0,1-2.52,2.83A3.57,3.57,0,0,1,31.52,26a1,1,0,0,1,.61-.67c.56-.39,1.37-1,1.34-1.71A21.6,21.6,0,0,0,27.19,22,35.07,35.07,0,0,0,23,21.65l-.11.14c0,3.38.36,10.11.36,10.11A25.36,25.36,0,0,0,38.5,30.2C41,28.86,43,26.29,42.72,23.41,42.38,18,37.64,13.81,33.28,11,24.82,5.87,15,2.52,4.32,4.31c-.29.14-.68.11-.84.39.44.5,1.39,0,1.84.61.14.17.42.34.25.56a4.21,4.21,0,0,1-3.52,0A.74.74,0,0,1,1.74,5a4.43,4.43,0,0,1,3.5-3.16C14.4-.47,23.7,2.19,31.52,6c6,2.85,12,7.9,14.83,14.07a9.87,9.87,0,0,1-1.87,10.23c-3.49,3.6-8,5-12.85,5.41a35.72,35.72,0,0,1-8.55-.83c-.13.78-.11,1.76-1,2.09-.84-.08-2,.48-2.46-.39m-1-6A78.89,78.89,0,0,0,19,21.79c-3.16.39-6.42.51-9.16,1.87a.87.87,0,0,0-.25.87,18.85,18.85,0,0,0,9.1,6" transform="translate(-1.7 -0.98)"/><path class="cls-1" d="M46.66,16.18a2.2,2.2,0,0,1-.5-2.26A4.46,4.46,0,0,1,45,10.34c.48-2.32,2.68-4.1,4.69-5.16s4.86-1.65,7-.48a4.6,4.6,0,0,1,.9,1A2.9,2.9,0,0,1,60,6.88a3.45,3.45,0,0,1-.17,3.52c-2.91,3.35-6.76,6.51-11.45,4.83-.37.42-.42,1.12-1.06,1.26a.77.77,0,0,1-.7-.31m6.73-3.52c2-.59,4.52-1.56,4.91-4a1.51,1.51,0,0,0-.44-1,2.1,2.1,0,0,0-1.65-.09A13.66,13.66,0,0,0,50,12.74a7.44,7.44,0,0,0,3.41-.08m-6.17-1.2a50,50,0,0,1,4.05-4.19c0-.06,0-.11,0-.14-1.82.36-3.88,1.79-4.19,3.77Z" transform="translate(-1.7 -0.98)"/><path class="cls-1" d="M95.37,43.47c.11-4,1.4-7.63,2.57-11.26l.59-1.56c-2.41-4.56.92-9.25,4-12.77.3-.25.61-.58,1-.39.42.81-.11,1.59-.25,2.35-1.28,2.43-3.18,4.69-3.1,7.65l.08.08c2.46-3.12,5.2-6.5,8.66-8.49a2.14,2.14,0,0,1,1.65,0,6.11,6.11,0,0,1,2.26,6.23c-.64,3.77-4.41,7-7.82,8.16a7.45,7.45,0,0,1-3,.14,64,64,0,0,0-3.38,12.73c-.62.37-1.18-.22-1.71-.5a3.81,3.81,0,0,1-1.56-2.37M108.55,28c1.65-1.45,2.68-3.49,2-5.69-.11-.23-.25-.48-.56-.45a29.81,29.81,0,0,0-5.94,7.9A8.27,8.27,0,0,0,108.55,28" transform="translate(-1.7 -0.98)"/><path class="cls-1" d="M171.64,25.13c0,2.18-.27,4.8,1.71,5.69a4,4,0,0,0,3.28,0c2-1.12,1.76-3.4,1.76-5.39V3.64h3.55V24.83c0,2.66.4,6.37-3.42,8.24a9.51,9.51,0,0,1-7.51,0c-3.23-1.53-2.92-4.6-2.92-6.92V3.64h3.55Z" transform="translate(-1.7 -0.98)"/><polygon class="cls-1" points="190.49 3.67 190.49 2.66 194.04 2.66 194.04 32.5 190.49 32.5 190.49 3.67"/><path class="cls-1" d="M210.29,27.16c.85-2.14-.54-4.16-2.2-6.48L206.2,18.1c-2.52-3.45-4.27-6.26-2.38-9.63,1.53-2.65,5-4.38,7.32-5.24l1.49,2.47c-2.43.94-4.81,2.18-5.62,4.46-.67,1.83.45,3.56,2.16,5.91L211.32,19c2.92,4.15,4.23,6.36,1.85,10.22-1.35,2.28-4.95,4.11-7.73,4.9l-1.58-2.58c2.38-.83,5.44-1.87,6.43-4.34" transform="translate(-1.7 -0.98)"/><polygon class="cls-1" points="230.67 24.48 224.33 24.48 224.33 29.66 231.39 29.66 231.39 32.5 224.33 32.5 220.78 32.5 220.78 3.67 220.78 2.66 230.67 2.66 230.67 4.95 230.67 5.73 224.33 5.73 224.33 21.68 230.67 21.68 230.67 24.48"/><polygon class="cls-1" points="305.19 2.66 305.19 3.67 305.19 32.5 308.74 32.5 315.79 32.5 315.79 29.65 308.74 29.65 308.74 24.48 315.08 24.48 315.08 21.68 308.74 21.68 308.74 5.73 315.08 5.73 315.08 4.95 315.08 2.66 305.19 2.66"/><polygon class="cls-1" points="271.22 3.67 271.22 2.66 274.77 2.66 274.77 32.5 271.22 32.5 271.22 3.67"/><polygon class="cls-1" points="293.7 22.84 293.7 19.55 286.96 11.24 286.96 12.36 286.96 31.94 286.96 32.5 283.41 32.5 283.41 2.89 283.41 2.03 293.7 14.38 293.7 2.62 296.58 2.62 297.25 2.62 297.25 32.5 293.7 32.5 293.7 22.84"/><path class="cls-1" d="M139,6.09c-6.54,2.86-9.33,8.08-9.29,12.7.09,4.36,2.53,9.21,9.16,12.37v3a16.42,16.42,0,0,1-12.54-12.44c-1.08-5.3.86-12.29,7.8-16.65A24.59,24.59,0,0,1,139,3Z" transform="translate(-1.7 -0.98)"/><path class="cls-1" d="M147.59,33.48V3c4.5,1,9.53,4.19,11.55,9.06a11.61,11.61,0,0,1-1.61,11.68,16.45,16.45,0,0,1-2.66,2.77l4.68,7h-4l-3.73-5.35a2,2,0,0,1-.72.37v5Zm3.55-8.57a10.44,10.44,0,0,0,5.35-7.38c.41-2.84-1.39-7.3-5.35-9.8V24.91Z" transform="translate(-1.7 -0.98)"/><polygon class="cls-1" points="264.29 29.63 264.29 32.43 258.02 32.43 254.48 32.43 254.48 3.67 254.48 2.66 258.02 2.66 258.02 29.63 264.29 29.63"/></svg>